<svg enable-background="new 0 0 742.438 470.222" height="471" viewBox="0 0 742.438 470.222" width="743" xmlns="http://www.w3.org/2000/svg"><path d="m720.832 468.222h-699.226c-10.828 0-19.606-8.778-19.606-19.606v-5.127c0-10.828 8.778-19.606 19.606-19.606h699.225c10.828 0 19.606 8.778 19.606 19.606v5.127c.001 10.828-8.777 19.606-19.605 19.606z" fill="#fff"/><path d="m720.832 470.222h-699.226c-11.913 0-21.606-9.692-21.606-21.606v-5.128c0-11.914 9.693-21.606 21.606-21.606h699.226c11.914 0 21.606 9.692 21.606 21.606v5.128c0 11.914-9.692 21.606-21.606 21.606zm-699.226-44.34c-9.708 0-17.606 7.898-17.606 17.606v5.128c0 9.708 7.898 17.606 17.606 17.606h699.226c9.708 0 17.606-7.898 17.606-17.606v-5.128c0-9.708-7.898-17.606-17.606-17.606z" fill="#222433"/><path d="m657.296 2h-572.154c-16.569 0-30 13.431-30 30v391.665h632.154v-391.665c0-16.569-13.431-30-30-30z" fill="#fff"/><path d="m687.296 425.665h-632.154c-1.105 0-2-.896-2-2v-391.665c0-17.645 14.355-32 32-32h572.154c17.645 0 32 14.355 32 32v391.665c0 1.104-.895 2-2 2zm-630.154-4h628.154v-389.665c0-15.439-12.561-28-28-28h-572.154c-15.439 0-28 12.561-28 28z" fill="#222433"/><path d="m629.139 31.56h-515.839c-16.569 0-30 13.431-30 30v333.414h575.839v-333.414c0-16.569-13.432-30-30-30z" fill="#82b1ff"/><path d="m659.139 396.974h-575.839c-1.105 0-2-.896-2-2v-333.414c0-17.645 14.355-32 32-32h515.839c17.645 0 32 14.355 32 32v333.414c0 1.105-.896 2-2 2zm-573.839-4h571.839v-331.414c0-15.439-12.561-28-28-28h-515.839c-15.439 0-28 12.561-28 28z" fill="#222433"/><path d="m348.102 334.784h-163.72c-8.284 0-15-6.716-15-15v-216.649c0-8.284 6.716-15 15-15h163.72c8.284 0 15 6.716 15 15v216.649c0 8.284-6.715 15-15 15z" fill="#5a38fd"/><path d="m377.55 335.086h163.72c8.284 0 15-6.716 15-15v-216.649c0-8.284-6.716-15-15-15h-163.72c-8.284 0-15 6.716-15 15v216.649c0 8.284 6.716 15 15 15z" fill="#5a38fd"/><path d="m466.212 297.506v78.54l22.332-14.268 21.171 13.761v-78.033z" fill="#fff"/><path d="m466.212 378.046c-.33 0-.661-.082-.961-.246-.641-.351-1.039-1.023-1.039-1.754v-78.539c0-1.104.895-2 2-2h43.503c1.105 0 2 .896 2 2v78.032c0 .733-.401 1.408-1.046 1.758-.645.351-1.429.318-2.044-.081l-20.091-13.06-21.245 13.575c-.327.209-.702.315-1.077.315zm2-78.539v72.888l19.255-12.303c.661-.423 1.509-.42 2.167.009l18.082 11.753v-72.347z" fill="#222433"/><path d="m348.102 319.434h-147.841c-8.284 0-15-6.716-15-15v-211.009c0-8.284 6.716-15 15-15h147.841c8.284 0 15 6.716 15 15v211.009c0 8.285-6.715 15-15 15z" fill="#fff"/><path d="m348.102 321.434h-147.841c-9.374 0-17-7.626-17-17v-211.008c0-9.374 7.626-17 17-17h147.841c9.374 0 17 7.626 17 17v211.009c0 9.373-7.626 16.999-17 16.999zm-147.841-241.008c-7.168 0-13 5.832-13 13v211.009c0 7.168 5.832 13 13 13h147.841c7.168 0 13-5.832 13-13v-211.009c0-7.168-5.832-13-13-13z" fill="#222433"/><path d="m378.609 319.736h147.841c8.284 0 15-6.716 15-15v-211.009c0-8.284-6.716-15-15-15h-147.841c-8.284 0-15 6.716-15 15v211.009c0 8.285 6.716 15 15 15z" fill="#fff"/><path d="m526.45 321.736h-147.841c-9.374 0-17-7.626-17-17v-211.009c0-9.374 7.626-17 17-17h147.841c9.374 0 17 7.626 17 17v211.009c0 9.374-7.626 17-17 17zm-147.841-241.009c-7.168 0-13 5.832-13 13v211.009c0 7.168 5.832 13 13 13h147.841c7.168 0 13-5.832 13-13v-211.009c0-7.168-5.832-13-13-13z" fill="#222433"/><path d="m211.196 105.601h128.088v93.155h-128.088z" fill="#fff"/><g fill="#222433"><path d="m339.284 200.757h-128.088c-1.105 0-2-.896-2-2v-93.155c0-1.104.895-2 2-2h128.088c1.105 0 2 .896 2 2v93.155c0 1.104-.895 2-2 2zm-126.088-4h124.088v-89.155h-124.088z"/><path d="m339.284 228.201h-128.088c-1.105 0-2-.896-2-2s.895-2 2-2h128.088c1.105 0 2 .896 2 2s-.895 2-2 2z"/><path d="m300.443 260.037h-89.247c-1.105 0-2-.896-2-2s.895-2 2-2h89.247c1.105 0 2 .896 2 2s-.895 2-2 2z"/><path d="m247.188 292.278h-35.992c-1.105 0-2-.896-2-2s.895-2 2-2h35.992c1.105 0 2 .896 2 2s-.896 2-2 2z"/><path d="m339.284 292.278h-73.042c-1.105 0-2-.896-2-2s.895-2 2-2h73.042c1.105 0 2 .896 2 2s-.895 2-2 2z"/></g><circle cx="275.24" cy="152.708" fill="#5a38fd" r="23.818"/><path d="m284.736 151.252c.955.551.955 1.929 0 2.481l-6.769 3.908-6.769 3.908c-.955.551-2.148-.138-2.148-1.24v-7.816-7.816c0-1.102 1.193-1.792 2.148-1.24l6.769 3.908z" fill="#fff"/><path d="m515.008 107.601h-127.029c-1.105 0-2-.896-2-2s.895-2 2-2h127.029c1.105 0 2 .896 2 2s-.895 2-2 2z" fill="#222433"/><path d="m390.096 188.171h69.866v69.866h-69.866z" fill="#fff"/><path d="m459.962 260.037h-69.866c-1.105 0-2-.896-2-2v-69.866c0-1.104.895-2 2-2h69.866c1.105 0 2 .896 2 2v69.866c0 1.104-.895 2-2 2zm-67.866-4h65.866v-65.866h-65.866z" fill="#222433"/><path d="m514.029 260.037h-36.78c-1.105 0-2-.896-2-2s.895-2 2-2h36.78c1.105 0 2 .896 2 2s-.896 2-2 2z" fill="#222433"/><path d="m516.067 291.794h-127.03c-1.105 0-2-.896-2-2s.895-2 2-2h127.03c1.105 0 2 .896 2 2s-.895 2-2 2z" fill="#222433"/><path d="m435.288 136.937h-47.568c-1.105 0-2-.896-2-2s.895-2 2-2h47.568c1.105 0 2 .896 2 2s-.895 2-2 2z" fill="#222433"/><path d="m514.749 136.937h-57.794c-1.105 0-2-.896-2-2s.895-2 2-2h57.794c1.105 0 2 .896 2 2s-.895 2-2 2z" fill="#222433"/><path d="m477.305 226.201 21.825.078" fill="#fff"/><path d="m499.13 228.279c-.002 0-.005 0-.007 0l-21.825-.078c-1.104-.004-1.997-.902-1.993-2.007.004-1.103.899-1.993 2-1.993h.007l21.825.078c1.104.004 1.997.902 1.993 2.007-.004 1.102-.899 1.993-2 1.993z" fill="#222433"/><path d="m515.008 198.47h-37.76c-1.105 0-2-.896-2-2s.895-2 2-2h37.76c1.105 0 2 .896 2 2s-.895 2-2 2z" fill="#222433"/><path d="m514.029 164.789h-126.05c-1.105 0-2-.896-2-2s.895-2 2-2h126.05c1.105 0 2 .896 2 2s-.896 2-2 2z" fill="#222433"/><path d="m459.962 258.037-22.23-44.461-23.773 44.461z" fill="#82b1ff"/><path d="m390.096 258.037 20.113-26.465 21.588 26.465z" fill="#82b1ff"/><circle cx="410.209" cy="211.459" fill="#82b1ff" r="6.351"/><path d="m459.962 260.037h-69.866c-1.105 0-2-.896-2-2v-69.866c0-1.104.895-2 2-2h69.866c1.105 0 2 .896 2 2v69.866c0 1.104-.895 2-2 2zm-67.866-4h65.866v-65.866h-65.866z" fill="#222433"/></svg>